<?xml version="1.0" encoding="UTF-8"?>
<svg id="Layer_2" data-name="Layer 2" xmlns="http://www.w3.org/2000/svg" viewBox="0 0 32 27.71">
  <defs>
    <style>
      .cls-1 {
        fill: #f36d00;
      }
    </style>
  </defs>
  <g id="Layer_1-2" data-name="Layer 1">
    <path id="favicon" class="cls-1" d="M28.26,1.08l-.63-1.08h-8.73l-2.91,5.04-2.29-3.96-.63-1.08H4.36L0,7.55l3.98,6.9.33.66h5.87s-2.91,5.04-2.91,5.04l4.36,7.56h8.72l11.64-20.16-3.74-6.47ZM10.18,2.51l-5.1,8.83-2.19-3.79,2.91-5.04h4.37ZM14.55,7.55l-2.91,5.04h-4.37S12.36,3.76,12.36,3.76l2.19,3.79ZM24.73,2.51l-12.37,21.42-2.19-3.79L20.36,2.51h4.37ZM29.1,7.55l-10.19,17.64h-4.37L26.91,3.76l2.19,3.79Z"/>
  </g>
</svg>