<?xml version="1.0" encoding="UTF-8"?>
<svg id="Layer_3" data-name="Layer 3" xmlns="http://www.w3.org/2000/svg" viewBox="0 0 2880 591.53">
  <defs>
    <style>
      .cls-1 {
        fill: #f36d00;
      }

      .cls-2 {
        fill: #fff;
      }
    </style>
  </defs>
  <g id="Layer_1" data-name="Layer 1">
    <g id="logo_dewsign" data-name="logo dewsign">
      <g id="logotype">
        <polygon class="cls-2" points="1020.6 440.84 861.89 12.61 752.62 12.61 974.31 578.92 1066.77 578.92 1289.51 12.61 1180.25 12.61 1020.6 440.84"/>
        <path class="cls-2" d="M1772.81,83.53c-22.76-25.57-50.43-45.87-83-60.94-32.57-15.05-69.87-22.59-111.9-22.59-51.85,0-98.6,12.79-140.26,38.35-41.69,25.58-74.6,60.41-98.77,104.55-24.16,44.13-36.25,94.56-36.25,151.3s12.25,106.64,36.77,151.82c24.51,45.18,58.13,80.74,100.87,106.65,42.71,25.92,91.41,38.87,146.04,38.87,39.22,0,74.77-6.3,106.64-18.91,31.87-12.61,59.53-29.58,83.01-50.96,23.46-21.36,40.8-45,52.01-70.92l-81.95-42.03c-16.12,27.31-37.14,49.74-63.04,67.24-25.92,17.52-57.79,26.27-95.61,26.27-34.33,0-66.03-8.57-95.09-25.74-29.07-17.15-51.48-41.33-67.25-72.5-11.9-23.53-18.5-49.98-19.81-79.32h433.25c1.4-8.4,2.63-17.34,3.68-26.8,1.05-9.45,1.58-18.02,1.58-25.74,0-35.02-6.14-68.82-18.39-101.39-12.27-32.57-29.78-61.62-52.54-87.2ZM1487.56,112.42c27.31-16.81,57.42-25.21,90.36-25.21s62.34,8.4,88.26,25.21c25.91,16.81,45.52,39.59,58.83,68.29,8.51,18.39,12.96,38.36,13.45,59.89h-331.05c2.9-20.43,8.36-39.21,16.58-56.21,15.05-31.15,36.25-55.16,63.57-71.97Z"/>
        <polygon class="cls-2" points="2255.49 12.61 2118.2 214.67 1979.17 12.61 1861.49 12.61 2059.02 295.24 1860.44 578.92 1980.22 578.92 2117.86 376.36 2255.49 578.92 2373.17 578.92 2176.69 295.24 2374.22 12.61 2255.49 12.61"/>
        <path class="cls-2" d="M2722.6,12.61h-263.92v93.51h323.61v114.15l-193.33,31.9c-42.03,7.01-76.88,18.92-104.54,35.72-27.68,16.81-47.99,37.3-60.94,61.47-12.97,24.16-19.44,51.32-19.44,81.43s8.04,59.37,24.16,83.53c16.11,24.16,38.36,43.07,66.72,56.73s61.1,20.49,98.24,20.49c32.21,0,61.99-4.91,89.31-14.71,27.31-9.8,51.12-23.12,71.44-39.93,11.57-9.58,21.63-20.17,30.47-31.57v73.6h95.61V170c0-86.93-70.47-157.4-157.4-157.4ZM2759.7,424.48c-15.07,25.92-35.72,46.41-61.99,61.46-26.27,15.07-57.26,22.59-92.98,22.59-28.03,0-51.32-7.7-69.87-23.12-18.57-15.4-27.84-34.67-27.84-57.79,0-24.51,8.22-45.17,24.69-61.99,16.45-16.81,42.9-28.37,79.33-34.67l171.26-28.7v36.06c0,31.51-7.54,60.25-22.59,86.15Z"/>
      </g>
      <path id="logomark" class="cls-1" d="M577.69,34.62l-12.78-22.02h-178.41l-59.44,102.95-46.75-80.93-12.93-22.02H89.08L0,166.94l81.36,140.94,6.79,13.58,120.07-.05-59.52,103.07,89.18,154.44h178.34l237.87-411.98-76.4-132.32ZM208.14,63.97l-104.16,180.39-44.69-77.43,59.44-102.97h89.42ZM297.42,166.93l-59.55,103.09-89.41.05,104.24-180.55,44.72,77.41ZM505.53,63.97l-252.84,437.91-44.69-77.4L416.14,63.97h89.39ZM594.8,166.94l-208.22,360.62h-89.39l252.89-438.04,44.72,77.43Z"/>
    </g>
  </g>
</svg>